<?xml version="1.0" encoding="utf-8"?>
<!-- Generator: Adobe Illustrator 21.1.0, SVG Export Plug-In . SVG Version: 6.00 Build 0)  -->
<svg version="1.1" id="圖層_1" xmlns="http://www.w3.org/2000/svg" xmlns:xlink="http://www.w3.org/1999/xlink" x="0px" y="0px"
	 viewBox="0 0 1957 2500" style="enable-background:new 0 0 1957 2500;" xml:space="preserve">
<style type="text/css">
	.st0{fill:#FFFFFF;}
</style>
<path d="M607.8,199.8c-10.5,0.3-21.9,4.3-34.9,14.4c-31.6-12.2-62.3-16.4-89.8,8.4c-42.3-5.5-56.1,5.9-66.5,19.1
	c-9.4-0.1-69.6-9.5-97.3,31.8c-69.5-8.2-91.5,40.8-66.5,86.7c-14.2,22-28.9,43.7,4.3,85.5c-11.7,23.3-4.4,48.6,23.2,79.2
	c-7.3,32.8,7,55.9,32.8,74c-4.9,44.9,41.2,71,54.9,80.2c5.3,26.1,16.2,50.8,68.8,64.4c8.7,39,40.2,45.7,70.8,53.9
	c-101,58.7-187.6,135.9-187,325.4l-14.8,26.4c-115.8,70.5-220,296.7-57.1,480.7c10.6,57.6,28.5,98.9,44.3,144.7
	c23.8,184.4,178.9,270.9,219.8,281.1c59.9,45.7,123.8,88.9,210.2,119.3c81.4,84,169.7,116,258.4,116c1.3,0,180.9-32,262.3-116
	c86.4-30.4,150.2-73.6,210.2-119.3c40.9-10.2,196-96.6,219.7-281.1c15.9-45.8,33.7-87.1,44.3-144.7c162.9-184,58.7-410.4-57.1-480.7
	l-14.8-26.4c0.6-189.4-86-266.7-187-325.4c30.5-8.2,62.1-14.9,70.8-53.9c52.5-13.6,63.5-38.3,68.8-64.4
	c13.7-9.3,59.7-35.4,54.9-80.2c25.7-18,40.1-41.2,32.8-74c27.7-30.6,34.9-55.9,23.2-79.2c33.2-41.8,18.5-63.6,4.3-85.5
	c24.9-45.8,2.9-94.9-66.6-86.7c-27.6-41.3-87.9-31.9-97.2-31.7c-10.5-13.2-24.2-24.6-66.5-19.1c-27.4-24.9-58.2-20.6-89.8-8.4
	c-37.6-29.6-62.4-5.9-90.9,3.1c-45.5-14.9-55.9,5.5-78.2,13.8c-49.6-10.5-64.7,12.3-88.4,36.4l-27.7-0.6
	c-74.8,44.1-112,133.9-125.2,180.1c-13.1-46.2-50.3-136-125.1-180.1l-27.6,0.6c-23.8-24.1-38.9-46.9-88.5-36.4
	c-22.3-8.4-32.7-28.7-78.2-13.8C645,211.4,627.9,199.2,607.8,199.8l-513.7,902"/>
<path class="st0" d="M458.7,393.8C657.3,496.2,772.7,579,836,649.5c-32.4,129.8-201.3,135.7-263.1,132c12.6-5.9,23.2-13,26.9-23.8
	c-15.5-11-70.5-1.2-108.8-22.7c14.7-3.1,21.7-6,28.5-16.9c-36.2-11.5-75.3-21.5-98.2-40.7c12.4,0.2,23.9,2.8,40.2-8.5
	c-32.5-17.5-67.1-31.4-94.1-58.1c16.8-0.4,34.9-0.2,40.2-6.4c-29.7-18.4-54.8-38.9-75.6-61.3c23.5,2.8,33.4,0.4,39.1-3.7
	c-22.4-23-50.9-42.4-64.4-70.8c17.4,6,33.4,8.3,44.9-0.5c-7.6-17.2-40.3-27.4-59.2-67.6c18.3,1.8,37.8,4,41.8,0
	c-8.5-34.7-23.2-54.2-37.5-74.5c39.3-0.6,98.8,0.2,96.1-3.2l-24.3-24.9c38.4-10.4,77.7,1.7,106.2,10.5c12.8-10.1-0.3-22.8-15.8-35.9
	c32.6,4.4,62.1,11.9,88.8,22.2c14.2-12.9-9.2-25.7-20.6-38.6c50.4,9.5,71.7,23,93,36.5c15.4-14.7,0.9-27.3-9.5-40.2
	c38,14.1,57.6,32.2,78.2,50.2c6.9-9.5,17.7-16.3,4.8-39.1c26.9,15.6,47.3,33.9,62.3,54.4c16.7-10.6,10-25.2,10-38.6
	c28,22.8,45.9,47.1,67.6,70.8c4.4-3.2,8.2-14.1,11.6-31.1c66.9,64.9,161.4,228.4,24.3,293.2C752.5,516.3,613.1,446.3,458.7,393.8
	L458.7,393.8 M1512.2,393.8c-198.5,102.3-314,185.2-377.1,255.6c32.4,129.8,201.3,135.7,263.1,132c-12.6-5.9-23.2-13-26.9-23.8
	c15.5-11,70.5-1.2,108.8-22.7c-14.7-3.1-21.6-6-28.5-16.9c36.2-11.5,75.3-21.5,98.2-40.7c-12.4,0.2-23.9,2.8-40.2-8.5
	c32.5-17.5,67.1-31.4,94.1-58.1c-16.8-0.4-34.9-0.2-40.2-6.4c29.7-18.4,54.8-38.9,75.6-61.3c-23.5,2.8-33.4,0.4-39.1-3.7
	c22.4-23,50.9-42.4,64.4-70.8c-17.4,6-33.4,8.3-44.9-0.5c7.6-17.2,40.3-27.4,59.2-67.6c-18.3,1.8-37.8,4-41.8,0
	c8.5-34.7,23.2-54.2,37.5-74.5c-39.3-0.6-98.8,0.2-96.1-3.2l24.3-24.9c-38.4-10.3-77.7,1.7-106.2,10.5
	c-12.8-10.1,0.3-22.8,15.8-35.9c-32.6,4.4-62.1,11.9-88.8,22.2c-14.2-12.9,9.2-25.7,20.6-38.6c-50.4,9.5-71.7,23-93,36.5
	c-15.4-14.7-0.8-27.3,9.5-40.2c-38,14.1-57.6,32.2-78.2,50.2c-7-9.5-17.7-16.3-4.8-39.1c-26.9,15.6-47.3,33.9-62.3,54.4
	c-16.7-10.6-10-25.2-10-38.6c-28,22.8-45.9,47.1-67.6,70.8c-4.4-3.2-8.2-14.1-11.6-31.2c-66.9,64.9-161.4,228.4-24.3,293.2
	C1218.4,516.3,1357.7,446.3,1512.2,393.8L1512.2,393.8"/>
<path class="st0" d="M1225.9,1715.4c0.7,121.1-105.2,219.8-236.6,220.4c-131.4,0.7-238.4-97-239.1-218.1c0-0.8,0-1.5,0-2.3
	c-0.7-121.1,105.2-219.8,236.6-220.4c131.4-0.7,238.4,97,239.1,218.1V1715.4 M850.4,1089c98.6,64.6,116.3,210.9,39.7,326.8
	s-218.6,157.6-317.1,93c-98.6-64.6-116.3-210.9-39.7-326.8C610,1066.1,752,1024.4,850.4,1089 M1116.4,1077.3
	c-98.5,64.5-116.3,210.9-39.7,326.8c76.6,116,218.6,157.6,317.1,93c98.6-64.5,116.3-210.9,39.7-326.8
	C1356.9,1054.4,1214.9,1012.7,1116.4,1077.3 M358,1194.6c106.4-28.5,35.9,440.1-50.6,401.6C212.2,1519.6,181.4,1295.3,358,1194.6
	 M1587.4,1188.7c-106.4-28.5-35.9,440.1,50.6,401.6C1733.3,1513.8,1763.9,1289.4,1587.4,1188.7 M1226,839.7
	c183.6-31,336.4,78.1,330.2,277.1C1550.1,1193.1,1158.3,851.1,1226,839.7 M718.7,833.8c-183.6-31-336.4,78.1-330.2,277.1
	C394.6,1187.4,786.3,845.2,718.7,833.8 M982.4,787.4c-109.6-2.8-214.7,81.3-215,130.1c-0.3,59.3,86.6,120.1,215.7,121.6
	c131.9,0.9,216-48.6,216.4-109.9C1200,859.9,1079.6,786.4,982.4,787.4L982.4,787.4 M989.1,2004c95.6-4.2,223.8,30.8,224,77.1
	c1.6,45-116.2,146.7-230.3,144.8c-118.2,5.1-234-96.7-232.5-132C748.6,2041.9,894.2,2001.6,989.1,2004 M636.2,1729.2
	c68,81.9,99,225.9,42.3,268.4c-53.7,32.4-184.1,19.1-276.8-114.1c-62.5-111.7-54.5-225.4-10.5-258.8
	C456.8,1584.7,558.2,1638.7,636.2,1729.2L636.2,1729.2 M1328.4,1703.2c-73.6,86.2-114.6,243.4-60.9,294
	c51.3,39.3,189.1,33.8,290.9-107.4c73.9-94.9,49.1-253.3,6.9-295.3C1502.6,1546.1,1412.6,1608.2,1328.4,1703.2L1328.4,1703.2"/>
</svg>
