<svg xmlns="http://www.w3.org/2000/svg" viewBox="0 0 117.95 160.15"><defs><style>.cls-1{fill:#040000;}</style></defs><title>資產 7</title><g id="圖層_2" data-name="圖層 2"><g id="黑稿"><path class="cls-1" d="M39.53,157.33c4.82,1.45,26.85,7.53,48.82-4.49a58.76,58.76,0,0,0,22.83-22.33c13.17-23.68,4.12-51-2.17-62C106,63.13,102.5,58,99.1,52.83,94,45.13,92.14,42.7,90.6,38c-.67-2-2.9-8.84-1.54-15.66C92,7.66,109.84,1.62,109,.25S86.62,3.86,77.19,21.84a42.42,42.42,0,0,0-2.31,5.39,39.08,39.08,0,0,0-1.52,6c-1.24,7.19,0,9.84-.89,15.56C71.88,52.34,70.8,59,65.6,62.25c-.63.4-4.82,3-9,1.25a8.15,8.15,0,0,1-4.25-4.25c-1.23-3.08.11-6.09,1-8,2.9-6.26,7.9-8,7.5-9-.73-1.92-19.23-.69-35.17,10.58A61.93,61.93,0,0,0,4,80.8c-1.32,3.49-9.17,25.23,1.71,47a61.66,61.66,0,0,0,19.5,22.26,62.39,62.39,0,0,0,9.3,5.2l22.11-22.11V119.7h0a10.67,10.67,0,1,1,5,0v15Z"/></g></g></svg>