<?xml version="1.0" encoding="utf-8"?>
<!-- Generator: Adobe Illustrator 21.1.0, SVG Export Plug-In . SVG Version: 6.00 Build 0)  -->
<svg version="1.1" id="圖層_1" xmlns="http://www.w3.org/2000/svg" xmlns:xlink="http://www.w3.org/1999/xlink" x="0px" y="0px"
	 viewBox="0 0 2500 1885" style="enable-background:new 0 0 2500 1885;" xml:space="preserve">
<style type="text/css">
	.st0{fill:#231F20;}
</style>
<path class="st0" d="M1735.1,1299.5h244.7V711.8l-275.7-275.7L1531,609.2l204,204V1299.5L1735.1,1299.5z M1980.5,1422.1h-853.7
	l-204.1-204l86.5-86.5l168.5,168.5h346.8L1183,957.9l87.2-87.2l341.6,341.6V865.5l-167.9-167.9l85.9-85.9l-424.2-426.2H253.1
	l244.1,244.1v0.6h506.3l178.9,178.9L920.8,870.7L742,691.8V553H497.2v240.2l423.6,423.6l-172.4,172.4l275.7,275.7h1200.4
	L1980.5,1422.1L1980.5,1422.1z"/>
</svg>
